<svg width="79" height="45" viewBox="0 0 79 45" fill="none" xmlns="http://www.w3.org/2000/svg">
<g clip-path="url(#clip0_92_35)">
<path d="M17.9092 6.92167C17.2061 6.92167 16.6511 6.33701 16.6511 5.63919C16.6511 4.94137 17.2061 4.33785 17.9092 4.33785H20.1478V3.62116V2.86676V2.39526H8.49207C5.19886 2.39526 2.33118 5.31857 2.33118 8.67565V25.8194H25.3096V7.67607H23.5705H23.404V9.95813C23.404 10.6748 22.8305 11.2406 22.1459 11.2406C21.4614 11.2406 20.8879 10.656 20.8879 9.95813V6.92167H17.9092Z" fill="#8BCD00"/>
<path d="M17.8536 21.1797L17.0766 19.0674H10.3792L9.60211 21.2175C9.28759 22.0662 9.02857 22.632 8.82506 22.9149C8.60304 23.2166 8.25152 23.3486 7.75199 23.3486C7.32646 23.3486 6.95644 23.1978 6.64192 22.8771C6.3274 22.5565 6.16089 22.217 6.16089 21.821C6.16089 21.5947 6.19789 21.3495 6.2719 21.1043C6.3459 20.8591 6.47541 20.5196 6.64192 20.0859L10.8602 9.18478C10.9712 8.86416 11.1192 8.48696 11.2857 8.05318C11.4522 7.6194 11.6372 7.2422 11.8222 6.9593C12.0073 6.6764 12.2663 6.43122 12.5808 6.26148C12.8953 6.07288 13.2838 5.99744 13.7279 5.99744C14.1904 5.99744 14.5789 6.09174 14.8934 6.26148C15.208 6.45008 15.4485 6.6764 15.652 6.9593C15.837 7.2422 16.0035 7.54396 16.133 7.86458C16.2625 8.1852 16.429 8.61898 16.6326 9.16592L20.9248 19.9916C21.2578 20.8214 21.4244 21.4061 21.4244 21.7833C21.4244 22.1793 21.2578 22.5377 20.9433 22.8583C20.6288 23.1789 20.2403 23.3486 19.7963 23.3486C19.5372 23.3486 19.3152 23.2921 19.1302 23.1978C18.9452 23.1035 18.7787 22.9715 18.6677 22.8017C18.5382 22.632 18.4087 22.3868 18.2607 22.0473C18.0941 21.7267 17.9646 21.4249 17.8536 21.1797ZM11.2487 16.5213H16.17L13.6909 9.58084L11.2487 16.5213Z" fill="#002D7A"/>
<path d="M35.1337 9.48654H31.156C30.86 9.48654 30.6194 9.24136 30.6194 8.9396V6.31806C30.6194 6.0163 30.86 5.77112 31.156 5.77112H44.5138C44.8098 5.77112 45.0504 6.0163 45.0504 6.31806V8.9396C45.0504 9.24136 44.8098 9.48654 44.5138 9.48654H40.4991C40.2031 9.48654 39.9625 9.73172 39.9625 10.0335V22.9149C39.9625 23.2166 39.722 23.4618 39.426 23.4618H36.2068C35.9108 23.4618 35.6703 23.2166 35.6703 22.9149V10.0335C35.6518 9.73172 35.4112 9.48654 35.1337 9.48654Z" fill="white"/>
<path d="M46.5305 17.2191V6.31806C46.5305 6.0163 46.771 5.77112 47.067 5.77112H50.2862C50.5822 5.77112 50.8227 6.0163 50.8227 6.31806V17.37C50.8227 19.1051 51.6923 20.2556 53.8014 20.2556C55.7995 20.2556 56.7431 19.0108 56.7431 17.2946V6.31806C56.7431 6.0163 56.9836 5.77112 57.2796 5.77112H60.4988C60.7949 5.77112 61.0354 6.0163 61.0354 6.31806V17.2191C61.0354 21.2929 58.6302 23.7636 53.8014 23.7636C48.9541 23.7636 46.5305 21.3495 46.5305 17.2191Z" fill="white"/>
<path d="M63.2925 6.31806C63.2925 6.0163 63.533 5.77112 63.829 5.77112H71.655C73.4496 5.77112 74.7817 6.22376 75.7068 6.97816C76.7058 7.82686 77.2054 8.95846 77.2054 10.373C77.2054 12.1269 76.2988 13.2397 74.7817 13.8432V13.9186C76.6688 14.5033 77.8899 16.1441 77.8899 18.2376C77.8899 20.0104 77.2609 21.3118 76.1138 22.1982C75.0962 23.0092 73.6716 23.4618 71.84 23.4618H63.8105C63.5145 23.4618 63.274 23.2166 63.274 22.9149V6.31806H63.2925ZM71.026 12.7682C72.2656 12.7682 73.1166 12.1458 73.1166 10.9953C73.1166 9.8826 72.3211 9.24136 71.063 9.24136H68.0843C67.7883 9.24136 67.5478 9.48654 67.5478 9.7883V12.2401C67.5478 12.5419 67.7883 12.787 68.0843 12.787H71.026V12.7682ZM71.359 19.935C72.7651 19.935 73.6346 19.124 73.6346 17.8604C73.6346 16.4459 72.6171 15.7292 71.3035 15.7292H68.0473C67.7513 15.7292 67.5108 15.9744 67.5108 16.2761V19.3881C67.5108 19.6898 67.7513 19.935 68.0473 19.935H71.359Z" fill="white"/>
<path d="M5.60583 33.6085V35.4757H5.30981C3.71871 35.4757 2.77515 36.4752 2.77515 38.0029V42.0578H0.962036V33.7594H2.75665V34.9853C3.36719 34.1366 4.21824 33.6274 5.29131 33.6274H5.60583V33.6085Z" fill="#8BCD00"/>
<path d="M14.6899 38.6253H8.1035C8.39952 39.8135 9.39859 40.6056 10.7307 40.6056C11.8037 40.6056 12.7103 40.0775 13.1728 39.474L14.3939 40.5301C13.5613 41.5863 12.2293 42.2653 10.6937 42.2653C8.1035 42.2653 6.17938 40.3793 6.17938 37.8897C6.17938 35.4379 8.0295 33.5708 10.4717 33.5708C12.9138 33.5708 14.7454 35.4191 14.7454 37.9275C14.7454 38.1349 14.7269 38.399 14.6899 38.6253ZM8.085 37.1353H12.8398C12.5623 35.966 11.6187 35.1928 10.4532 35.1928C9.28758 35.1928 8.36252 35.9849 8.085 37.1353Z" fill="#8BCD00"/>
<path d="M18.5382 32.9484V33.7405H20.7028V35.4002H18.5382V42.0578H16.7435V35.4191H15.3745V33.7594H16.7435V32.8541C16.7435 31.1944 17.5946 30.1571 19.3522 30.1571C19.9442 30.1571 20.3698 30.2703 20.8138 30.4966V32.0997C20.4993 31.9111 20.1663 31.8168 19.7222 31.8168C18.9637 31.8168 18.5382 32.1751 18.5382 32.9484Z" fill="#8BCD00"/>
<path d="M21.9794 31.1944C21.9794 30.5343 22.4789 30.0439 23.1079 30.0439C23.7555 30.0439 24.255 30.5343 24.255 31.1944C24.255 31.8545 23.7555 32.3449 23.1079 32.3449C22.4789 32.3449 21.9794 31.8356 21.9794 31.1944ZM22.2199 33.7405H24.0145V42.0389H22.2199V33.7405Z" fill="#8BCD00"/>
<path d="M33.8941 36.8335V42.0578H32.0995V37.4371C32.0995 36.1734 31.3039 35.3247 30.0644 35.3247C28.7693 35.3247 27.8997 36.1923 27.8997 37.4748V42.0578H26.1051V33.7594H27.8997V34.8344C28.5473 34.0045 29.4908 33.5708 30.6564 33.5708C32.6175 33.5519 33.8941 34.8532 33.8941 36.8335Z" fill="#8BCD00"/>
<path d="M35.6517 31.1944C35.6517 30.5343 36.1513 30.0439 36.7803 30.0439C37.4278 30.0439 37.9274 30.5343 37.9274 31.1944C37.9274 31.8545 37.4278 32.3449 36.7803 32.3449C36.1328 32.3449 35.6517 31.8356 35.6517 31.1944ZM35.8922 33.7405H37.6869V42.0389H35.8922V33.7405Z" fill="#8BCD00"/>
<path d="M39.1669 40.9827L40.092 39.7002C40.721 40.3038 41.5166 40.681 42.5156 40.681C43.4222 40.681 44.1252 40.3603 44.1252 39.7757C44.1252 39.1156 43.3297 38.9081 42.3676 38.6818C41.0541 38.38 39.4074 37.9463 39.4074 36.1168C39.4074 34.4006 40.8875 33.5519 42.6452 33.5519C43.9957 33.5519 45.0318 34.0611 45.7533 34.6646L44.8098 35.9471C44.2548 35.4567 43.5332 35.1361 42.6822 35.1361C41.8866 35.1361 41.2206 35.419 41.2206 35.9848C41.2206 36.6449 41.9976 36.8335 42.9967 37.0598C44.3103 37.3616 45.9384 37.7765 45.9384 39.5871C45.9384 41.3222 44.4398 42.2652 42.5341 42.2652C41.0726 42.2463 39.9625 41.6805 39.1669 40.9827Z" fill="#8BCD00"/>
<path d="M55.2445 36.8336V42.0578H53.4684V37.4371C53.4684 36.1735 52.6728 35.3248 51.4332 35.3248C50.1382 35.3248 49.2686 36.1924 49.2686 37.4749V42.0578H47.474V30.3269H49.2686V34.8722C49.9162 34.0046 50.8597 33.552 52.0253 33.552C53.9494 33.552 55.2445 34.8533 55.2445 36.8336Z" fill="#8BCD00"/>
<path d="M56.9836 31.1944C56.9836 30.5343 57.4831 30.0439 58.1122 30.0439C58.7597 30.0439 59.2592 30.5343 59.2592 31.1944C59.2592 31.8545 58.7597 32.3449 58.1122 32.3449C57.4831 32.3449 56.9836 31.8356 56.9836 31.1944ZM57.2241 33.7405H59.0187V42.0389H57.2241V33.7405Z" fill="#8BCD00"/>
<path d="M68.9169 36.8335V42.0578H67.1222V37.4371C67.1222 36.1734 66.3267 35.3247 65.0871 35.3247C63.792 35.3247 62.9225 36.1923 62.9225 37.4748V42.0578H61.1279V33.7594H62.9225V34.8344C63.57 34.0045 64.5136 33.5708 65.6792 33.5708C67.6218 33.5519 68.9169 34.8532 68.9169 36.8335Z" fill="#8BCD00"/>
<path d="M79 44.4908L77.1499 45C77.0944 44.3399 76.5393 43.9061 75.7253 43.9061H72.9316C71.47 43.9061 70.508 43.0385 70.508 41.7938C70.508 40.9639 70.915 40.1907 71.581 39.7946C70.8965 39.1345 70.4709 38.2292 70.4709 37.1919C70.4709 35.1173 72.0991 33.5519 74.2637 33.5519C74.9482 33.5519 75.5773 33.7217 76.1138 33.9857C76.3173 33.0993 77.0759 32.5524 78.1119 32.5524H78.7595V34.2498H78.2044C77.7049 34.2498 77.3349 34.5327 77.2979 34.9664C77.7789 35.57 78.0564 36.3432 78.0564 37.1731C78.0564 39.2477 76.4098 40.8131 74.2637 40.8131C73.7272 40.8131 73.2091 40.7188 72.7466 40.5302C72.4691 40.7188 72.3211 41.0205 72.3211 41.3223C72.3211 41.7938 72.7096 42.1144 73.2831 42.1144H76.0768C77.6309 42.1333 78.7595 43.0385 79 44.4908ZM72.3026 37.1919C72.3026 38.267 73.1351 39.0968 74.2452 39.0968C75.3553 39.0968 76.1878 38.267 76.1878 37.1919C76.1878 36.098 75.3553 35.2871 74.2452 35.2871C73.1351 35.2682 72.3026 36.098 72.3026 37.1919Z" fill="#8BCD00"/>
<path d="M26.4012 4.3378H23.4225V1.28248C23.4225 0.5658 22.8489 0 22.1644 0C21.4798 0 20.9063 0.58466 20.9063 1.28248V2.84786V4.82816C20.9063 5.97862 21.8129 6.90277 22.9414 6.90277H24.329H26.4012C27.1042 6.90277 27.6592 6.3181 27.6592 5.62028C27.6592 4.92246 27.1042 4.3378 26.4012 4.3378Z" fill="white"/>
<path d="M26.4012 7.67603H25.1246V25.6308H2.53466V8.65675C2.53466 5.29966 5.21733 2.56496 8.51054 2.56496H20.1663V1.28248C20.1663 0.792121 20.3328 0.33948 20.6103 0H8.49204C3.81124 0 0 3.88516 0 8.65675V26.1777C0 27.2904 0.888056 28.2146 1.99813 28.2146H25.6796C26.7712 28.2146 27.6778 27.3093 27.6778 26.1777V7.20453C27.3262 7.48743 26.8822 7.67603 26.4012 7.67603Z" fill="white"/>
</g>
<defs>
<clipPath id="clip0_92_35">
<rect width="79" height="45" fill="white"/>
</clipPath>
</defs>
</svg>
